<?xml version="1.0" encoding="utf-8"?>
<!-- Generator: Adobe Illustrator 18.1.1, SVG Export Plug-In . SVG Version: 6.00 Build 0)  -->
<!DOCTYPE svg PUBLIC "-//W3C//DTD SVG 1.1//EN" "http://www.w3.org/Graphics/SVG/1.1/DTD/svg11.dtd">
<svg version="1.1" id="Layer_1" xmlns="http://www.w3.org/2000/svg" xmlns:xlink="http://www.w3.org/1999/xlink" x="0px" y="0px"
	 viewBox="86 38 228 226" enable-background="new 86 38 228 226" xml:space="preserve">
<g>
	<g>
		<g>
			<path fill="#F3B23F" d="M214.6,259.9c0,0-12.1-14.7-40.3-19.5c-27.4-6.4-60.6-33.2-69.2-70.8c-9.9-37.3,6.7-76.2,28-94.4
				c21.1-19.1,40.8-22.1,40.4-22.4c0.5,0.6-19.1,4-39.7,23.2c-20.7,18.3-36.5,56.8-26.5,93c8.7,36.6,41.2,62.3,67.7,68.2
				c6.4,1,12,2.5,17,4.3c18.7,6.6,25.9,15.2,25.9,15.2L214.6,259.9z"/>
		</g>
		<g>
			<path fill="#F3B23F" d="M185,259.9c0,0,12.1-14.7,40.3-19.5c27.4-6.4,60.6-33.2,69.2-70.8c9.9-37.3-6.7-76.2-28-94.4
				c-21.1-19.1-40.8-22.1-40.4-22.4c-0.5,0.6,19.1,4,39.7,23.2c20.7,18.3,36.5,56.8,26.5,93c-8.7,36.6-41.2,62.3-67.7,68.2
				c-6.4,1-12,2.5-17,4.3c-18.7,6.6-25.9,15.2-25.9,15.2L185,259.9z"/>
		</g>
		<g>
			<g>
				<path fill="#F3B23F" d="M166.2,217.2c0,0,7.7,2.6,10.2,8.8c3.2,7.7,1.8,14.1,1.8,14.1s-7.7-4-10.3-8.2
					C164.3,226,166.2,217.2,166.2,217.2z"/>
				<path fill="#F3B23F" d="M152.7,250.8c0,0,7.8,2.4,13.4-1.1c7.1-4.3,9.7-10.3,9.7-10.3s-8.6-1.3-13.1,0.5
					C156.4,242.6,152.7,250.8,152.7,250.8z"/>
			</g>
			<g>
				<path fill="#F3B23F" d="M154.2,210.6c0,0,7,3.9,8.4,10.2c1.8,7.9-0.7,13.9-0.7,13.9s-6.8-5.2-8.5-9.6
					C150.9,218.8,154.2,210.6,154.2,210.6z"/>
				<path fill="#F3B23F" d="M135.5,240.7c0,0,7.1,3.6,13.2,1.3c7.6-3,11.2-8.3,11.2-8.3s-8.1-2.7-12.7-1.7
					C140.4,233.4,135.5,240.7,135.5,240.7z"/>
			</g>
			<g>
				<path fill="#F3B23F" d="M143.5,202c0,0,6.1,4.9,6.4,11.3c0.4,8-3,13.3-3,13.3s-5.6-6.1-6.6-10.7
					C138.9,209.4,143.5,202,143.5,202z"/>
				<path fill="#F3B23F" d="M120.2,227.9c0,0,6.2,4.7,12.5,3.4c7.8-1.6,12.2-6.1,12.2-6.1s-7.3-4-12-3.8
					C126.3,221.7,120.2,227.9,120.2,227.9z"/>
			</g>
			<g>
				<path fill="#F3B23F" d="M134.3,191.6c0,0,5,5.8,4.2,12c-1,7.7-5.1,12.3-5.1,12.3s-4.4-6.9-4.5-11.5
					C128.7,197.9,134.3,191.6,134.3,191.6z"/>
				<path fill="#F3B23F" d="M107.5,212.7c0,0,5.2,5.6,11.5,5.4c7.8-0.2,12.8-3.8,12.8-3.8s-6.4-5.1-10.9-5.7
					C114.4,207.7,107.5,212.7,107.5,212.7z"/>
			</g>
			<g>
				<path fill="#F3B23F" d="M127.1,179.8c0,0,3.9,6.4,2,12.3c-2.3,7.3-7.1,11-7.1,11s-3.1-7.4-2.4-11.9
					C120.5,185,127.1,179.8,127.1,179.8z"/>
				<path fill="#F3B23F" d="M97.6,195.6c0,0,4.1,6.3,10.1,7.2c7.6,1.1,13-1.5,13-1.5s-5.3-6-9.6-7.4
					C105.1,192,97.6,195.6,97.6,195.6z"/>
			</g>
			<g>
				<path fill="#F3B23F" d="M122.1,167c0,0,2.6,6.9-0.1,12.2c-3.5,6.7-8.7,9.4-8.7,9.4s-1.7-7.7-0.3-11.9
					C114.9,170.9,122.1,167,122.1,167z"/>
				<path fill="#F3B23F" d="M91,177.2c0,0,2.9,6.8,8.5,8.7c7.1,2.4,12.8,0.8,12.8,0.8s-4.1-6.7-8-8.8C98.8,175,91,177.2,91,177.2z"
					/>
			</g>
			<g>
				<path fill="#F3B23F" d="M119.4,153.6c0,0,1.4,7.1-2.2,11.7c-4.5,5.8-10,7.6-10,7.6s-0.3-7.7,1.7-11.5
					C111.7,156.1,119.4,153.6,119.4,153.6z"/>
				<path fill="#F3B23F" d="M87.6,158.1c0,0,1.6,7,6.8,9.8c6.4,3.5,12.2,2.9,12.2,2.9s-2.8-7.2-6.2-9.8
					C95.5,157.3,87.6,158.1,87.6,158.1z"/>
			</g>
			<g>
				<path fill="#F3B23F" d="M119,139.8c0,0,0.1,7.1-4.1,11c-5.3,4.9-10.9,5.7-10.9,5.7s1-7.5,3.6-10.8
					C111.2,140.9,119,139.8,119,139.8z"/>
				<path fill="#F3B23F" d="M87.5,138.8c0,0,0.4,7,4.9,10.6c5.6,4.5,11.3,4.9,11.3,4.9s-1.5-7.4-4.3-10.5
					C95.4,139.4,87.5,138.8,87.5,138.8z"/>
			</g>
			<g>
				<path fill="#F3B23F" d="M120.9,125.7c0,0-1.1,6.8-5.8,9.9c-5.9,3.8-11.5,3.6-11.5,3.6s2.2-7,5.3-9.8
					C113.2,125.5,120.9,125.7,120.9,125.7z"/>
				<path fill="#F3B23F" d="M90.8,119.4c0,0-0.9,6.9,2.9,11.1c4.7,5.3,10.1,6.6,10.1,6.6s-0.2-7.4-2.4-10.9
					C98.2,121.3,90.8,119.4,90.8,119.4z"/>
			</g>
			<g>
				<path fill="#F3B23F" d="M125.4,112c0,0-2.2,6.4-7.3,8.5c-6.4,2.7-11.7,1.5-11.7,1.5s3.3-6.4,6.8-8.6
					C118,110.4,125.4,112,125.4,112z"/>
				<path fill="#F3B23F" d="M97.3,100.8c0,0-2,6.5,0.9,11.2c3.6,5.9,8.6,8.1,8.6,8.1s1.1-7.2-0.5-10.9
					C104.2,103.8,97.3,100.8,97.3,100.8z"/>
			</g>
			<g>
				<path fill="#F3B23F" d="M132.2,99.3c0,0-3.2,5.8-8.5,7c-6.6,1.5-11.6-0.5-11.6-0.5s4.3-5.6,8-7.1
					C125.3,96.5,132.2,99.3,132.2,99.3z"/>
				<path fill="#F3B23F" d="M107,83.6c0,0-3,5.9-1,11c2.5,6.3,6.9,9.3,6.9,9.3s2.3-6.7,1.4-10.6C113.1,87.8,107,83.6,107,83.6z"/>
			</g>
			<g>
				<path fill="#F3B23F" d="M141.2,87.9c0,0-4.1,5.1-9.4,5.3c-6.6,0.3-11.1-2.5-11.1-2.5s5.1-4.7,9-5.5
					C135,84.1,141.2,87.9,141.2,87.9z"/>
				<path fill="#F3B23F" d="M119.5,68.6c0,0-3.9,5.2-2.9,10.4c1.3,6.5,5.1,10.2,5.1,10.2s3.3-6.1,3.2-10
					C124.7,73.6,119.5,68.6,119.5,68.6z"/>
			</g>
			<g>
				<path fill="#F3B23F" d="M151.9,78.4c0,0-4.8,4.2-10,3.5c-6.5-0.8-10.3-4.3-10.3-4.3s5.7-3.7,9.6-3.8
					C146.6,73.7,151.9,78.4,151.9,78.4z"/>
				<path fill="#F3B23F" d="M134.3,56.1c0,0-4.7,4.3-4.5,9.6c0.2,6.5,3.2,10.7,3.2,10.7s4.2-5.3,4.8-9.1
					C138.5,61.8,134.3,56.1,134.3,56.1z"/>
			</g>
			<g>
				<path fill="#F3B23F" d="M164,71c0,0-5.4,3.2-10.2,1.7c-6.1-1.9-9.2-5.9-9.2-5.9s6.2-2.6,9.9-2C159.7,65.5,164,71,164,71z"/>
				<path fill="#F3B23F" d="M150.9,46.4c0,0-5.2,3.4-6,8.4c-1,6.3,1.3,10.8,1.3,10.8s5-4.4,6.2-8C153.9,52.7,150.9,46.4,150.9,46.4z
					"/>
			</g>
			<g>
				<path fill="#F3B23F" d="M177.1,65.8c0,0-5.7,2.2-10.2-0.1c-5.6-2.9-7.9-7.2-7.9-7.2s6.4-1.4,9.9-0.3
					C173.9,59.8,177.1,65.8,177.1,65.8z"/>
				<path fill="#F3B23F" d="M168.6,39.9c0,0-5.6,2.4-7.2,7.1c-2,5.9-0.6,10.7-0.6,10.7s5.6-3.4,7.3-6.7
					C170.4,46.4,168.6,39.9,168.6,39.9z"/>
			</g>
			<path fill="#F3B23F" d="M168.8,54.5c0,0,4.2,2.4,8,1.1c4.7-1.6,7-4.8,7-4.8s-4.8-1.8-7.7-1.4C172.1,50.1,168.8,54.5,168.8,54.5z"
				/>
			<g>
				<path fill="#F3B23F" d="M233.4,217.2c0,0-7.7,2.6-10.2,8.8c-3.2,7.7-1.8,14.1-1.8,14.1s7.7-4,10.3-8.2
					C235.3,226,233.4,217.2,233.4,217.2z"/>
				<path fill="#F3B23F" d="M246.9,250.8c0,0-7.8,2.4-13.4-1.1c-7.1-4.3-9.7-10.3-9.7-10.3s8.6-1.3,13.1,0.5
					C243.2,242.6,246.9,250.8,246.9,250.8z"/>
			</g>
			<g>
				<path fill="#F3B23F" d="M245.4,210.6c0,0-7,3.9-8.4,10.2c-1.8,7.9,0.7,13.9,0.7,13.9s6.7-5.2,8.5-9.6
					C248.7,218.8,245.4,210.6,245.4,210.6z"/>
				<path fill="#F3B23F" d="M264.1,240.7c0,0-7.1,3.6-13.2,1.3c-7.6-3-11.2-8.3-11.2-8.3s8.1-2.7,12.7-1.7
					C259.1,233.4,264.1,240.7,264.1,240.7z"/>
			</g>
			<g>
				<path fill="#F3B23F" d="M256.1,202c0,0-6.1,4.9-6.4,11.3c-0.4,8,3,13.3,3,13.3s5.6-6.1,6.6-10.7
					C260.7,209.4,256.1,202,256.1,202z"/>
				<path fill="#F3B23F" d="M279.3,227.9c0,0-6.2,4.7-12.5,3.4c-7.8-1.6-12.2-6.1-12.2-6.1s7.3-4,12-3.8
					C273.3,221.7,279.3,227.9,279.3,227.9z"/>
			</g>
			<g>
				<path fill="#F3B23F" d="M265.2,191.6c0,0-5,5.8-4.2,12c1,7.7,5.1,12.3,5.1,12.3s4.4-6.9,4.5-11.5
					C270.9,197.9,265.2,191.6,265.2,191.6z"/>
				<path fill="#F3B23F" d="M292.1,212.7c0,0-5.2,5.6-11.5,5.4c-7.8-0.2-12.8-3.8-12.8-3.8s6.4-5.1,10.9-5.7
					C285.2,207.7,292.1,212.7,292.1,212.7z"/>
			</g>
			<g>
				<path fill="#F3B23F" d="M272.5,179.8c0,0-3.9,6.4-2,12.3c2.3,7.3,7.1,11,7.1,11s3.1-7.4,2.4-11.9
					C279,185,272.5,179.8,272.5,179.8z"/>
				<path fill="#F3B23F" d="M302,195.6c0,0-4.1,6.3-10.1,7.2c-7.6,1.1-13-1.5-13-1.5s5.3-6,9.6-7.4C294.4,192,302,195.6,302,195.6z"
					/>
			</g>
			<g>
				<path fill="#F3B23F" d="M277.5,167c0,0-2.6,6.9,0.1,12.2c3.5,6.7,8.7,9.4,8.7,9.4s1.7-7.7,0.3-11.9
					C284.7,170.9,277.5,167,277.5,167z"/>
				<path fill="#F3B23F" d="M308.6,177.2c0,0-2.9,6.8-8.6,8.7c-7.1,2.4-12.8,0.8-12.8,0.8s4.1-6.7,8-8.8
					C300.7,175,308.6,177.2,308.6,177.2z"/>
			</g>
			<g>
				<path fill="#F3B23F" d="M280.2,153.6c0,0-1.4,7.1,2.2,11.7c4.5,5.8,10,7.6,10,7.6s0.3-7.7-1.7-11.5
					C287.8,156.1,280.2,153.6,280.2,153.6z"/>
				<path fill="#F3B23F" d="M312,158.1c0,0-1.6,7-6.8,9.8c-6.4,3.5-12.2,2.9-12.2,2.9s2.8-7.2,6.2-9.8
					C304,157.3,312,158.1,312,158.1z"/>
			</g>
			<g>
				<path fill="#F3B23F" d="M280.6,139.8c0,0-0.1,7.1,4.1,11c5.3,4.9,10.9,5.7,10.9,5.7s-1-7.5-3.6-10.8
					C288.4,140.9,280.6,139.8,280.6,139.8z"/>
				<path fill="#F3B23F" d="M312,138.8c0,0-0.4,7-4.9,10.6c-5.6,4.5-11.3,4.9-11.3,4.9s1.5-7.4,4.3-10.5
					C304.2,139.4,312,138.8,312,138.8z"/>
			</g>
			<g>
				<path fill="#F3B23F" d="M278.6,125.7c0,0,1.1,6.8,5.8,9.9c5.9,3.8,11.5,3.6,11.5,3.6s-2.2-7-5.3-9.8
					C286.3,125.5,278.6,125.7,278.6,125.7z"/>
				<path fill="#F3B23F" d="M308.8,119.4c0,0,0.9,6.9-2.9,11.1c-4.7,5.3-10.1,6.6-10.1,6.6s0.2-7.4,2.4-10.9
					C301.3,121.3,308.8,119.4,308.8,119.4z"/>
			</g>
			<g>
				<path fill="#F3B23F" d="M274.2,112c0,0,2.2,6.4,7.3,8.5c6.4,2.7,11.7,1.5,11.7,1.5s-3.3-6.4-6.8-8.6
					C281.6,110.4,274.2,112,274.2,112z"/>
				<path fill="#F3B23F" d="M302.3,100.8c0,0,2,6.5-0.9,11.2c-3.6,5.9-8.6,8.1-8.6,8.1s-1.1-7.2,0.5-10.9
					C295.4,103.8,302.3,100.8,302.3,100.8z"/>
			</g>
			<g>
				<path fill="#F3B23F" d="M267.4,99.3c0,0,3.2,5.8,8.5,7c6.6,1.5,11.6-0.5,11.6-0.5s-4.3-5.6-8-7.1
					C274.3,96.5,267.4,99.3,267.4,99.3z"/>
				<path fill="#F3B23F" d="M292.6,83.6c0,0,3,5.9,1,11c-2.5,6.3-6.9,9.3-6.9,9.3s-2.3-6.7-1.4-10.6
					C286.4,87.8,292.6,83.6,292.6,83.6z"/>
			</g>
			<g>
				<path fill="#F3B23F" d="M258.4,87.9c0,0,4.1,5.1,9.4,5.3c6.6,0.3,11.1-2.5,11.1-2.5s-5.1-4.7-9-5.5
					C264.6,84.1,258.4,87.9,258.4,87.9z"/>
				<path fill="#F3B23F" d="M280,68.6c0,0,3.9,5.2,2.9,10.4c-1.3,6.5-5.1,10.2-5.1,10.2s-3.3-6.1-3.2-10
					C274.8,73.6,280,68.6,280,68.6z"/>
			</g>
			<g>
				<path fill="#F3B23F" d="M247.7,78.4c0,0,4.8,4.2,10,3.5c6.5-0.8,10.3-4.3,10.3-4.3s-5.7-3.7-9.6-3.8
					C253,73.7,247.7,78.4,247.7,78.4z"/>
				<path fill="#F3B23F" d="M265.3,56.1c0,0,4.7,4.3,4.5,9.6c-0.2,6.5-3.2,10.7-3.2,10.7s-4.2-5.3-4.8-9.1
					C261.1,61.8,265.3,56.1,265.3,56.1z"/>
			</g>
			<g>
				<path fill="#F3B23F" d="M235.5,71c0,0,5.4,3.2,10.2,1.7c6.1-1.9,9.2-5.9,9.2-5.9s-6.2-2.6-9.9-2C239.8,65.5,235.5,71,235.5,71z"
					/>
				<path fill="#F3B23F" d="M248.7,46.4c0,0,5.2,3.4,6,8.4c1,6.3-1.3,10.8-1.3,10.8s-5-4.4-6.2-8C245.6,52.7,248.7,46.4,248.7,46.4z
					"/>
			</g>
			<g>
				<path fill="#F3B23F" d="M222.5,65.8c0,0,5.7,2.2,10.2-0.1c5.6-2.9,7.9-7.2,7.9-7.2s-6.4-1.4-9.9-0.3
					C225.7,59.8,222.5,65.8,222.5,65.8z"/>
				<path fill="#F3B23F" d="M231,39.9c0,0,5.6,2.4,7.2,7.1c2,5.9,0.6,10.7,0.6,10.7s-5.6-3.4-7.3-6.7C229.1,46.4,231,39.9,231,39.9z
					"/>
			</g>
			<path fill="#F3B23F" d="M230.7,54.5c0,0-4.2,2.4-8,1.1c-4.7-1.6-7-4.8-7-4.8s4.8-1.8,7.7-1.4C227.5,50.1,230.7,54.5,230.7,54.5z"
				/>
		</g>
	</g>
	<g>
		<path fill="#191919" d="M167.9,115.9c-0.9,0-1.8-0.3-2.5-1s-1-1.5-1-2.5c0-0.9,0.3-1.7,1-2.5l13.2-12.8c0.5-0.5,1.1-0.8,1.8-0.9
			s1.4-0.1,2,0.2c1.5,0.6,2.2,1.6,2.2,3.2v62.1c0,1-0.3,1.8-1,2.5c-0.7,0.6-1.5,1-2.5,1s-1.9-0.3-2.5-1c-0.7-0.6-1-1.5-1-2.5v-53.9
			l-7.2,7.1C169.6,115.6,168.8,115.9,167.9,115.9z"/>
		<path fill="#191919" d="M218.5,165.2c-2.3,0-4.5-0.4-6.5-1.3c-2-0.9-3.8-2-5.3-3.5s-2.7-3.2-3.6-5.1c-0.9-2-1.3-4.1-1.3-6.4v-36.4
			c0-2.2,0.4-4.3,1.3-6.3c0.9-2,2.1-3.7,3.6-5.2s3.2-2.6,5.3-3.5c2-0.9,4.2-1.3,6.5-1.3s4.4,0.4,6.4,1.3s3.8,2,5.3,3.5
			s2.7,3.2,3.6,5.2c0.9,2,1.3,4.1,1.3,6.3v36.4c0,2.3-0.4,4.4-1.3,6.4c-0.9,2-2.1,3.7-3.6,5.1c-1.5,1.5-3.3,2.6-5.3,3.5
			C222.9,164.8,220.8,165.2,218.5,165.2z M218.5,103.1c-2.7,0-5,0.9-6.9,2.8s-2.8,4.1-2.8,6.6v36.4c0,2.6,0.9,4.9,2.8,6.7
			c1.9,1.8,4.1,2.7,6.9,2.7c2.6,0,4.9-0.9,6.8-2.7c1.9-1.8,2.8-4,2.8-6.7v-36.4c0-1.3-0.3-2.5-0.8-3.6s-1.2-2.1-2.1-3
			s-1.9-1.5-3.1-2C221.1,103.3,219.8,103.1,218.5,103.1z"/>
	</g>
	<g>
		<path d="M171.5,187.5l-4.8-9.6c-0.1-0.3-0.2-0.5-0.1-0.8c0.1-0.3,0.3-0.5,0.6-0.7c0.3-0.1,0.5-0.1,0.8,0s0.5,0.3,0.7,0.6l3.9,7.8
			l3.9-7.8c0.1-0.3,0.4-0.5,0.6-0.6c0.3-0.1,0.6-0.1,0.9,0c0.3,0.1,0.5,0.4,0.6,0.7s0.1,0.6-0.1,0.8l-4.8,9.6v10.2
			c0,0.3-0.1,0.6-0.3,0.8s-0.5,0.3-0.8,0.3s-0.6-0.1-0.8-0.3s-0.3-0.5-0.3-0.8L171.5,187.5L171.5,187.5z"/>
		<path d="M182.1,177.6c0-0.3,0.1-0.6,0.3-0.8s0.5-0.3,0.8-0.3h7c0.3,0,0.6,0.1,0.8,0.3s0.3,0.5,0.3,0.8s-0.1,0.6-0.3,0.8
			s-0.5,0.3-0.8,0.3h-5.9v7.4h5.2c0.3,0,0.6,0.1,0.8,0.3s0.3,0.5,0.3,0.8s-0.1,0.6-0.3,0.8s-0.5,0.3-0.8,0.3h-5.2v8.1h5.9
			c0.3,0,0.6,0.1,0.8,0.3s0.3,0.5,0.3,0.8s-0.1,0.6-0.3,0.8s-0.5,0.3-0.8,0.3h-7c-0.3,0-0.6-0.1-0.8-0.3s-0.3-0.5-0.3-0.8V177.6z"/>
		<path d="M206.9,197.5c0.1,0.3,0.1,0.6-0.1,0.8c-0.2,0.3-0.4,0.4-0.7,0.5s-0.6,0.1-0.8-0.1c-0.3-0.2-0.4-0.4-0.5-0.7
			c-0.1-0.4-0.2-0.7-0.3-1.2c-0.1-0.4-0.2-0.8-0.4-1.3c-0.1-0.5-0.3-1-0.4-1.6h-6.8c-0.2,0.6-0.3,1.2-0.5,1.6
			c-0.1,0.5-0.2,0.9-0.3,1.3c-0.1,0.4-0.2,0.8-0.3,1.2c-0.1,0.3-0.3,0.5-0.5,0.7c-0.3,0.1-0.5,0.2-0.9,0.1c-0.3-0.1-0.5-0.3-0.7-0.5
			c-0.2-0.3-0.2-0.5-0.1-0.8l5.6-20.4c0.1-0.3,0.2-0.5,0.4-0.6c0.2-0.2,0.4-0.2,0.7-0.2s0.5,0.1,0.7,0.2c0.2,0.1,0.3,0.4,0.4,0.6
			L206.9,197.5z M202.9,191.7c-0.2-0.9-0.5-1.8-0.7-2.7c-0.3-0.9-0.5-1.8-0.8-2.7c-0.2-0.9-0.5-1.7-0.7-2.5s-0.4-1.5-0.6-2.2
			c-0.2,0.6-0.4,1.4-0.6,2.2c-0.2,0.8-0.4,1.7-0.7,2.5c-0.2,0.9-0.5,1.8-0.8,2.7s-0.5,1.8-0.7,2.7H202.9z"/>
		<path d="M219.9,186.8c-0.6,0.9-1.4,1.5-2.4,1.9l3.2,8.7c0.1,0.3,0.1,0.6,0,0.8c-0.1,0.3-0.3,0.5-0.7,0.6c-0.3,0.1-0.6,0.1-0.8,0
			c-0.3-0.1-0.5-0.3-0.6-0.7l-3.4-9.1h-2.9v8.7c0,0.3-0.1,0.6-0.3,0.8s-0.5,0.3-0.8,0.3s-0.6-0.1-0.8-0.3s-0.3-0.5-0.3-0.8v-20.2
			c0-0.3,0.1-0.6,0.3-0.8s0.5-0.3,0.8-0.3h4.2c0.7,0,1.4,0.1,2.1,0.4s1.2,0.7,1.7,1.1c0.5,0.5,0.9,1,1.1,1.7
			c0.3,0.7,0.4,1.3,0.4,2.1v2C220.8,184.9,220.5,185.9,219.9,186.8z M217.7,185.9c0.6-0.6,0.9-1.3,0.9-2.2v-2c0-0.8-0.3-1.6-0.9-2.2
			c-0.6-0.6-1.3-0.9-2.2-0.9h-3.1v8.1h3.1C216.3,186.8,217.1,186.5,217.7,185.9z"/>
		<path d="M230.8,196c0.8-0.6,1.2-1.4,1.3-2.4c0-0.5,0-0.9-0.2-1.4c-0.2-0.4-0.4-0.8-0.7-1.2l-5.6-5.8c-0.5-0.5-0.9-1.2-1.2-1.9
			s-0.3-1.5-0.3-2.2c0-0.8,0.3-1.5,0.6-2.2c0.4-0.7,0.9-1.2,1.5-1.7s1.3-0.8,2-1s1.5-0.2,2.2,0s1.4,0.5,2,0.9s1.1,1,1.5,1.7
			c0.2,0.3,0.2,0.5,0.1,0.8c-0.1,0.3-0.3,0.5-0.5,0.7c-0.3,0.2-0.5,0.2-0.8,0.1c-0.3-0.1-0.5-0.3-0.7-0.5c-0.5-0.8-1.2-1.3-2.1-1.5
			c-0.9-0.2-1.7,0-2.5,0.6c-0.7,0.5-1.1,1.3-1.2,2.2c-0.1,0.9,0.2,1.7,0.8,2.4l5.6,5.8c0.5,0.6,0.9,1.2,1.2,1.9s0.4,1.5,0.3,2.3
			c-0.1,0.8-0.3,1.5-0.7,2.2s-0.9,1.3-1.5,1.7s-1.3,0.8-2.1,1s-1.5,0.2-2.3,0s-1.5-0.5-2.1-0.9c-0.6-0.5-1.2-1-1.6-1.7
			c-0.1-0.3-0.2-0.6-0.1-0.9c0.1-0.3,0.3-0.5,0.5-0.7s0.5-0.2,0.8-0.1c0.3,0.1,0.5,0.3,0.7,0.5c0.2,0.4,0.5,0.7,0.9,1
			s0.8,0.5,1.3,0.5C229.1,196.8,230,196.6,230.8,196z"/>
	</g>
</g>
</svg>
